# xmcd
#
# Track frame offsets: 
#        150
#        19434
#        38064
#        53286
#        76353
#        91143
#        103299
#        124941
#        139677
#        160020
#        173610
#        193029
#
# Disc length: 2822 seconds
#
# Revision: 0
# Processed by: cddbd v1.5.2PL0 Copyright (c) Steve Scherf et al.
# Submitted via: ExactAudioCopyFreeDBPlugin 1.0
#
DISCID=920b040c
DTITLE=พงษ์สิทธิ์ คำภีร์ - The Best Of Kampee 2
DYEAR=1900
DGENRE=Thai Country
TTITLE0=มาตามสัญญา
TTITLE1=สุดใจ
TTITLE2=เสือตัวที่ 11
TTITLE3=หนุ่มน้อย
TTITLE4=แรงยังมี
TTITLE5=คืนเปลี่ยว
TTITLE6=ม ให้อะไร
TTITLE7=สาวส่งออก
TTITLE8=เข้าเมือง
TTITLE9=งง
TTITLE10=รอ
TTITLE11=นักแสวงหา
EXTD=
EXTT0=
EXTT1=
EXTT2=
EXTT3=
EXTT4=
EXTT5=
EXTT6=
EXTT7=
EXTT8=
EXTT9=
EXTT10=
EXTT11=
PLAYORDER=
